# Rhino

mtllib pyramid.mtl
g Default
o object_1
usemtl diffuse_0
v 3.9441354274749756 0 -2.103538990020752
v -4.0317831039428711 0 -10.07945728302002
v -0.0438237264752388 0 -6.0914983749389648
v -4.0317831039428711 3.8071081638336182 -6.0914983749389648
v -4.0317831039428711 7.6142163276672363 -2.103538990020752
v -0.0438237264752388 3.8071081638336182 -2.103538990020752
v -4.0317831039428711 0 -10.07945728302002
v -12.00770092010498 0 -2.103538990020752
v -4.0317831039428711 7.6142163276672363 -2.103538990020752
v -4.0317831039428711 3.8071081638336182 -6.0914983749389648
v -8.0197420120239258 0 -6.0914983749389648
v -8.0197420120239258 3.8071081638336182 -2.103538990020752
v -12.00770092010498 0 -2.103538990020752
v -4.0317831039428711 0 5.8723793029785156
v -4.0317831039428711 7.6142163276672363 -2.103538990020752
v -8.0197420120239258 3.8071081638336182 -2.103538990020752
v -8.0197420120239258 0 1.8844202756881714
v -4.0317831039428711 3.8071081638336182 1.8844202756881714
v -4.0317831039428711 0 5.8723793029785156
v 3.9441354274749756 0 -2.103538990020752
v -0.0438237264752388 3.8071081638336182 -2.103538990020752
v -4.0317831039428711 7.6142163276672363 -2.103538990020752
v -4.0317831039428711 3.8071081638336182 1.8844202756881714
v -0.0438237264752388 0 1.8844202756881714
v 3.9441354274749756 0 -2.103538990020752
v -0.0438237264752388 0 -6.0914983749389648
v -4.0317831039428711 0 -10.07945728302002
v -8.0197420120239258 0 -6.0914983749389648
v -12.00770092010498 0 -2.103538990020752
v -8.0197420120239258 0 1.8844202756881714
v -4.0317831039428711 0 5.8723793029785156
v -0.0438237264752388 0 1.8844202756881714
vt 0.72705376148223877 0.32317408919334412
vt 0.72705376148223877 0.64488333463668823
vt 0.72705376148223877 0.48402869701385498
vt 0.59204542636871338 0.56445598602294922
vt 0.45703715085983276 0.48402869701385498
vt 0.59204542636871338 0.40360137820243835
vt 0.72705376148223877 0
vt 0.72705376148223877 0.32170924544334412
vt 0.45703715085983276 0.16085462272167206
vt 0.59204542636871338 0.080427311360836029
vt 0.72705376148223877 0.16085462272167206
vt 0.59204542636871338 0.24128192663192749
vt 0.99853515625 0.32317408919334412
vt 0.99853515625 0.64488333463668823
vt 0.72851860523223877 0.48402869701385498
vt 0.86352688074111938 0.40360137820243835
vt 0.99853515625 0.48402869701385498
vt 0.86352688074111938 0.56445598602294922
vt 0.99853515625 0
vt 0.99853515625 0.32170924544334412
vt 0.86352688074111938 0.24128192663192749
vt 0.72851860523223877 0.16085462272167206
vt 0.86352688074111938 0.080427311360836029
vt 0.99853515625 0.16085462272167206
vt 0.45557230710983276 0.22851857542991638
vt 0.34167924523353577 0.34277787804603577
vt 0.22778615355491638 0.45703715085983276
vt 0.11389307677745819 0.34277787804603577
vt 0 0.22851857542991638
vt 0.11389307677745819 0.11425928771495819
vt 0.22778615355491638 0
vt 0.34167924523353577 0.11425928771495819
vn 0.56821268796920776 0.59520477056503296 -0.56821268796920776
vn 0.56821268796920776 0.59520477056503296 -0.56821268796920776
vn 0.56821268796920776 0.59520477056503296 -0.56821268796920776
vn 0.56821268796920776 0.59520477056503296 -0.56821268796920776
vn 0.56821268796920776 0.59520477056503296 -0.56821268796920776
vn 0.56821268796920776 0.59520477056503296 -0.56821268796920776
vn -0.56821268796920776 0.59520477056503296 -0.56821268796920776
vn -0.56821268796920776 0.59520477056503296 -0.56821268796920776
vn -0.56821268796920776 0.59520477056503296 -0.56821268796920776
vn -0.56821268796920776 0.59520477056503296 -0.56821268796920776
vn -0.56821268796920776 0.59520477056503296 -0.56821268796920776
vn -0.56821268796920776 0.59520477056503296 -0.56821268796920776
vn -0.56821268796920776 0.59520477056503296 0.56821268796920776
vn -0.56821268796920776 0.59520477056503296 0.56821268796920776
vn -0.56821268796920776 0.59520477056503296 0.56821268796920776
vn -0.56821268796920776 0.59520477056503296 0.56821268796920776
vn -0.56821268796920776 0.59520477056503296 0.56821268796920776
vn -0.56821268796920776 0.59520477056503296 0.56821268796920776
vn 0.56821268796920776 0.59520477056503296 0.56821268796920776
vn 0.56821268796920776 0.59520477056503296 0.56821268796920776
vn 0.56821268796920776 0.59520477056503296 0.56821268796920776
vn 0.56821268796920776 0.59520477056503296 0.56821268796920776
vn 0.56821268796920776 0.59520477056503296 0.56821268796920776
vn 0.56821268796920776 0.59520477056503296 0.56821268796920776
vn 0 -1 0
vn 0 -1 0
vn 0 -1 0
vn 0 -1 0
vn 0 -1 0
vn 0 -1 0
vn 0 -1 0
vn 0 -1 0
f 6/6/6 1/1/1 3/3/3 2/2/2 4/4/4 5/5/5
f 10/10/10 7/7/7 11/11/11 8/8/8 12/12/12 9/9/9
f 16/16/16 13/13/13 17/17/17 14/14/14 18/18/18 15/15/15
f 22/22/22 23/23/23 19/19/19 24/24/24 20/20/20 21/21/21
f 32/32/32 31/31/31 30/30/30 29/29/29 28/28/28 27/27/27 26/26/26 25/25/25
